<svg width="20" height="20" viewBox="0 0 20 20" fill="none" xmlns="http://www.w3.org/2000/svg">
<g clip-path="url(#clip0_90_894)">
<path d="M18.4382 14.2939H17.8561V13.5588C17.8561 11.8184 16.4401 10.4025 14.6997 10.4025H13.4772H10.7168V7.68398H12.4629C13.324 7.68398 14.0246 6.9834 14.0246 6.12223V2.33129C14.0246 1.47016 13.324 0.769531 12.4629 0.769531H7.79777C6.93664 0.769531 6.23605 1.47012 6.23605 2.33129V6.12219C6.23605 6.98332 6.93664 7.68395 7.79777 7.68395H9.54387V10.4024H6.82254H5.32633C3.58586 10.4024 2.17 11.8184 2.17 13.5588V14.2939H1.56176C0.700586 14.2939 0 14.9945 0 15.8557V17.6715C0 18.5327 0.700586 19.2332 1.56176 19.2332H3.95105C4.81219 19.2332 5.51277 18.5327 5.51277 17.6715V15.8557C5.51277 14.9945 4.81219 14.2939 3.95105 14.2939H3.34289V13.5588C3.34289 12.4652 4.23266 11.5754 5.32629 11.5754H6.8225H9.54383V14.2939H8.93566C8.07449 14.2939 7.37391 14.9945 7.37391 15.8557V17.6715C7.37391 18.5327 8.07449 19.2332 8.93566 19.2332H11.325C12.1861 19.2332 12.8867 18.5327 12.8867 17.6715V15.8557C12.8867 14.9945 12.1861 14.2939 11.325 14.2939H10.7168V11.5754H13.4773H14.6998C15.7934 11.5754 16.6832 12.4652 16.6832 13.5588V14.2939H16.0489C15.1878 14.2939 14.4872 14.9945 14.4872 15.8557V17.6715C14.4872 18.5327 15.1878 19.2332 16.0489 19.2332H18.4382C19.2994 19.2332 20 18.5327 20 17.6715V15.8557C20 14.9945 19.2994 14.2939 18.4382 14.2939ZM3.95109 15.4668C4.16547 15.4668 4.33988 15.6413 4.33988 15.8557V17.6715C4.33988 17.8859 4.16547 18.0603 3.95109 18.0603H1.5618C1.34742 18.0603 1.17297 17.8859 1.17297 17.6715V15.8557C1.17297 15.6413 1.34742 15.4668 1.5618 15.4668H3.95109ZM11.325 15.4668C11.5394 15.4668 11.7138 15.6413 11.7138 15.8557V17.6715C11.7138 17.8859 11.5394 18.0603 11.325 18.0603H8.9357C8.72133 18.0603 8.54688 17.8859 8.54688 17.6715V15.8557C8.54688 15.6413 8.72133 15.4668 8.9357 15.4668H11.325ZM7.79777 6.51106C7.5834 6.51106 7.40898 6.3366 7.40898 6.12223V2.33129C7.40898 2.11691 7.5834 1.94246 7.79777 1.94246H12.4629C12.6772 1.94246 12.8516 2.11688 12.8516 2.33129V6.12219C12.8516 6.33656 12.6772 6.51102 12.4629 6.51102H7.79777V6.51106ZM18.8271 17.6716C18.8271 17.8859 18.6526 18.0604 18.4382 18.0604H16.0489C15.8346 18.0604 15.6602 17.8859 15.6602 17.6716V15.8557C15.6602 15.6413 15.8346 15.4669 16.0489 15.4669H18.4382C18.6526 15.4669 18.8271 15.6413 18.8271 15.8557V17.6716Z" fill="#9FAAE0"/>
</g>
<defs>
<clipPath id="clip0_90_894">
<rect width="20" height="20" fill="white"/>
</clipPath>
</defs>
</svg>
