<svg width="24" height="24" viewBox="0 0 24 24" fill="none" xmlns="http://www.w3.org/2000/svg">
<path d="M21.9445 2.7653C21.7289 2.58657 21.4689 2.46953 21.1922 2.42657C20.9154 2.38361 20.6322 2.41634 20.3725 2.5213L2.45553 9.7543C2.166 9.87328 1.91951 10.0775 1.74877 10.3399C1.57803 10.6022 1.49112 10.9103 1.49959 11.2232C1.50805 11.5361 1.61148 11.839 1.79615 12.0918C1.98082 12.3445 2.238 12.5351 2.53353 12.6383L6.39953 13.9803L8.49453 20.9063C8.49853 20.9203 8.51153 20.9293 8.51753 20.9423C8.53912 20.9976 8.57064 21.0484 8.61053 21.0923C8.67115 21.16 8.7494 21.2095 8.83653 21.2353C8.84653 21.2393 8.85353 21.2483 8.86353 21.2503H8.86953L8.87253 21.2513C8.9499 21.2679 9.03029 21.2638 9.10553 21.2393C9.11353 21.2373 9.12153 21.2373 9.13053 21.2343C9.20278 21.2089 9.26816 21.1672 9.32153 21.1123C9.32753 21.1053 9.33753 21.1043 9.34353 21.0983L12.3565 17.7723L16.7535 21.1773C17.0205 21.3863 17.3495 21.4993 17.6885 21.4993C18.4225 21.4993 19.0555 20.9853 19.2065 20.2683L22.4685 4.2503C22.5239 3.97837 22.5043 3.69653 22.4121 3.43482C22.3198 3.17312 22.1582 2.94137 21.9445 2.7643V2.7653ZM9.58753 15.2953L8.88053 18.7323L7.40553 13.8543L14.7205 10.0443L9.72353 15.0423C9.65434 15.1114 9.60704 15.1994 9.58753 15.2953ZM18.2265 20.0673C18.2078 20.158 18.166 20.2423 18.1052 20.3122C18.0444 20.3821 17.9667 20.4351 17.8795 20.4663C17.7945 20.499 17.7023 20.5091 17.6122 20.4954C17.5221 20.4817 17.4371 20.4448 17.3655 20.3883L12.6025 16.6993C12.503 16.6224 12.3781 16.5859 12.2528 16.597C12.1275 16.6082 12.011 16.6661 11.9265 16.7593L9.82953 19.0703L10.5355 15.6433L17.7245 8.4533C17.8087 8.36883 17.8599 8.25705 17.869 8.13814C17.878 8.01922 17.8442 7.901 17.7737 7.8048C17.7032 7.7086 17.6007 7.64077 17.4846 7.61354C17.3685 7.5863 17.2464 7.60147 17.1405 7.6563L6.77753 13.0543L2.86053 11.6923C2.75668 11.658 2.6661 11.5922 2.60139 11.504C2.53669 11.4158 2.50109 11.3097 2.49953 11.2003C2.49455 11.09 2.52403 10.9808 2.58388 10.888C2.64373 10.7952 2.73098 10.7233 2.83353 10.6823L20.7475 3.4493C20.8393 3.41029 20.9402 3.39768 21.0388 3.41287C21.1374 3.42807 21.2297 3.47046 21.3055 3.5353C21.3809 3.59629 21.4378 3.67702 21.47 3.76849C21.5021 3.85997 21.5082 3.95857 21.4875 4.0533L18.2265 20.0683V20.0673Z" fill="white"/>
</svg>
