<svg width="24" height="24" viewBox="0 0 24 24" fill="none" xmlns="http://www.w3.org/2000/svg">
<path d="M8.63899 6.54297C8.22478 6.54297 7.88899 6.87876 7.88899 7.29297C7.88899 7.70718 8.22478 8.04297 8.63899 8.04297V6.54297ZM16.719 7.29297H17.469C17.469 6.87876 17.1332 6.54297 16.719 6.54297V7.29297ZM15.969 15.372C15.969 15.7862 16.3048 16.122 16.719 16.122C17.1332 16.122 17.469 15.7862 17.469 15.372H15.969ZM6.77466 16.1766C6.48177 16.4695 6.48177 16.9444 6.77466 17.2373C7.06756 17.5302 7.54243 17.5302 7.83532 17.2373L6.77466 16.1766ZM17.2373 7.8353C17.5302 7.54241 17.5302 7.06753 17.2373 6.77464C16.9444 6.48175 16.4696 6.48175 16.1767 6.77464L17.2373 7.8353ZM8.63899 8.04297H16.719V6.54297H8.63899V8.04297ZM15.969 7.29297V15.372H17.469V7.29297H15.969ZM7.83532 17.2373L17.2373 7.8353L16.1767 6.77464L6.77466 16.1766L7.83532 17.2373Z" fill="black"/>
</svg>
